<?xml version="1.0" standalone="no"?>
<!DOCTYPE svg PUBLIC "-//W3C//DTD SVG 20010904//EN"
 "http://www.w3.org/TR/2001/REC-SVG-20010904/DTD/svg10.dtd">
<svg version="1.0" xmlns="http://www.w3.org/2000/svg"
 width="880.000000pt" height="880.000000pt" viewBox="0 0 880.000000 880.000000"
 preserveAspectRatio="xMidYMid meet">
<metadata>
Created by potrace 1.14, written by Peter Selinger 2001-2017
</metadata>
<g transform="translate(0.000000,880.000000) scale(0.100000,-0.100000)"
fill="#000000" stroke="none">
<path d="M3377 5955 c-20 -60 -23 -87 -13 -143 7 -36 5 -41 -8 -36 -21 8 -50
-23 -70 -76 -18 -49 -18 -51 29 -155 8 -16 35 -82 60 -145 26 -63 57 -137 69
-165 12 -27 33 -76 46 -108 18 -47 25 -56 32 -42 6 9 10 35 11 57 2 37 5 41
30 44 15 1 27 -1 27 -5 0 -7 -36 -115 -47 -141 -4 -8 -8 -19 -9 -25 -1 -5 -3
-12 -4 -15 -1 -3 -3 -12 -5 -20 -2 -8 -9 -28 -16 -45 -7 -16 -13 -33 -14 -37
-2 -5 -4 -10 -5 -13 -1 -3 -3 -10 -4 -17 0 -6 -6 -13 -12 -15 -8 -3 -12 9 -12
29 0 18 -2 40 -4 48 -2 9 6 16 20 18 23 4 31 31 10 33 -7 1 -19 2 -27 3 -8 0
-15 8 -16 17 -2 9 -6 27 -10 39 -6 19 -4 21 13 16 13 -4 22 -1 25 8 8 19 -7
29 -31 22 -14 -5 -21 2 -30 27 -16 44 -15 46 7 40 15 -4 19 0 17 13 -3 21 -21
30 -31 14 -4 -7 -11 -6 -20 4 -16 16 -33 72 -18 63 5 -3 15 -2 23 3 12 7 12
12 3 21 -9 9 -16 9 -28 -1 -14 -11 -19 -7 -16 13 0 4 -3 7 -9 7 -5 0 -10 7
-10 15 0 8 -4 15 -10 15 -5 0 -10 7 -10 16 0 11 6 13 19 9 24 -7 38 12 21 28
-10 9 -14 9 -17 0 -3 -7 -11 -13 -19 -13 -9 0 -13 4 -10 9 4 5 2 11 -3 13 -4
1 -12 13 -15 26 -6 17 -3 22 12 22 27 0 33 10 15 28 -14 14 -16 14 -25 -1 -11
-20 -30 -23 -26 -4 3 15 -31 81 -38 74 -3 -3 -7 -13 -9 -24 -2 -10 -4 -19 -5
-20 -2 -2 -3 -6 -5 -10 -1 -5 -5 -16 -9 -25 -5 -10 -6 -24 -3 -30 2 -7 5 -17
6 -23 2 -5 10 -18 18 -27 9 -10 13 -18 10 -18 -3 0 4 -24 17 -52 27 -63 39
-91 41 -98 0 -3 11 -27 23 -54 13 -28 25 -60 28 -73 4 -13 11 -23 17 -23 6 0
8 -3 5 -6 -6 -5 5 -33 64 -163 11 -24 20 -52 21 -62 1 -10 3 -16 5 -14 3 2 10
-2 18 -9 9 -10 11 -22 5 -44 -15 -51 -1 -193 20 -200 5 -2 9 -9 9 -16 0 -7 11
-27 25 -46 14 -19 25 -31 25 -27 0 3 11 -5 25 -19 14 -14 38 -30 54 -35 27 -9
28 -12 23 -58 -4 -43 -2 -50 17 -56 11 -3 21 -11 21 -16 0 -6 5 -7 10 -4 15 9
12 -12 -6 -48 -30 -57 -22 -154 20 -236 14 -25 14 -34 4 -51 -15 -24 -41 -26
-62 -4 -14 14 -20 11 -18 -8 3 -17 -27 -29 -47 -18 -28 15 -26 2 4 -26 28 -26
33 -47 10 -38 -32 13 -13 -8 21 -22 24 -10 34 -20 30 -30 -3 -9 1 -14 12 -15
9 -1 24 -2 32 -3 8 0 15 -8 15 -16 0 -20 62 -22 92 -4 32 20 47 17 75 -11 18
-18 24 -32 20 -50 -5 -29 -10 -30 -36 -10 -43 33 -116 10 -116 -36 0 -21 30
-51 55 -55 21 -3 31 16 14 28 -11 7 -11 11 -1 15 6 2 10 9 6 14 -3 5 1 9 9 9
12 0 40 -73 51 -135 8 -42 59 -120 111 -171 35 -34 66 -71 70 -83 6 -19 8 -19
21 -6 20 19 50 19 58 0 3 -8 11 -15 19 -15 7 0 14 -13 15 -31 1 -17 11 -48 22
-70 11 -21 17 -39 13 -39 -5 0 1 -7 11 -15 11 -8 16 -15 10 -15 -5 0 -5 -3 1
-8 23 -17 36 -52 25 -72 -14 -27 -13 -52 7 -96 9 -22 18 -48 20 -59 6 -30 21
-41 29 -19 3 10 12 33 19 49 29 68 37 103 24 111 -15 9 -10 34 6 34 9 0 18 12
22 30 3 17 13 36 22 43 21 16 24 31 22 95 -1 46 11 71 21 41 7 -22 47 8 41 31
-3 11 -8 20 -12 21 -38 5 -49 4 -46 -2 7 -11 -27 -21 -37 -11 -14 14 1 38 37
58 19 10 32 22 29 26 -3 4 0 8 6 8 15 0 60 46 53 54 -4 3 1 6 9 6 11 0 15 -8
13 -25 -1 -14 2 -28 6 -31 5 -3 9 2 9 10 0 9 4 16 9 16 8 0 26 47 23 62 -1 3
5 12 13 18 8 7 15 18 15 24 0 6 20 53 45 104 25 51 45 96 45 100 0 4 16 39 35
77 19 39 35 76 35 83 0 6 5 12 10 12 6 0 10 5 10 11 0 10 15 44 84 191 18 40
40 88 47 106 8 17 17 32 22 32 4 0 7 6 6 13 -1 6 23 64 53 127 86 178 128 271
128 281 0 5 5 9 12 9 6 0 9 3 6 6 -4 3 23 67 59 142 94 198 107 226 108 232 1
3 14 32 29 65 49 102 96 205 95 208 0 1 13 31 30 66 l30 64 -37 71 c-20 39
-36 74 -34 79 1 4 -3 7 -9 7 -5 0 -8 4 -4 9 3 5 1 12 -5 16 -5 3 -10 14 -10
24 0 10 -7 24 -15 31 -8 6 -14 15 -13 18 1 4 -6 24 -15 45 -9 20 -25 54 -34
75 -9 20 -16 40 -15 45 1 4 -2 7 -8 7 -6 0 -9 3 -8 8 2 10 -32 86 -42 92 -4 3
-10 14 -12 25 -3 17 -6 16 -21 -12 -10 -18 -15 -33 -12 -33 3 0 -1 -10 -10
-23 -8 -13 -12 -27 -8 -30 3 -4 1 -7 -5 -7 -7 0 -12 -5 -12 -11 0 -5 -10 -31
-21 -57 -45 -97 -80 -177 -80 -179 0 -3 -32 -77 -61 -140 -11 -27 -22 -51 -22
-55 -1 -3 -4 -10 -8 -14 -5 -4 -8 -16 -8 -26 0 -10 -4 -18 -10 -18 -5 0 -10
-6 -10 -13 0 -7 -20 -57 -44 -112 -55 -125 -77 -179 -76 -183 0 -1 -6 -15 -15
-30 -12 -23 -34 -73 -40 -92 -1 -3 -16 -36 -34 -75 -18 -38 -39 -88 -47 -109
-8 -22 -19 -45 -25 -53 -6 -7 -8 -13 -4 -13 4 0 0 -11 -9 -25 -9 -14 -14 -25
-12 -25 2 0 -11 -32 -30 -70 -19 -39 -34 -74 -34 -79 0 -4 -6 -21 -14 -37 -19
-39 -56 -123 -132 -301 -39 -92 -47 -110 -60 -137 -8 -16 -14 -35 -14 -42 0
-18 -21 -22 -52 -12 -27 10 -48 49 -63 118 -4 19 -10 39 -13 45 -3 5 -7 25 -9
44 -3 38 -40 121 -54 121 -5 0 -9 5 -9 10 0 15 -48 57 -87 76 -24 12 -30 21
-27 37 3 12 7 48 10 80 4 44 2 57 -9 57 -25 0 -51 26 -44 45 6 13 10 15 21 6
11 -9 16 -5 24 16 14 37 77 235 78 248 0 6 6 24 13 40 7 17 15 39 17 50 7 26
10 36 17 58 9 21 14 40 15 47 0 4 8 27 38 105 4 11 9 31 11 45 2 13 9 30 15
37 6 7 8 13 6 13 -3 0 -2 22 3 49 11 69 -4 166 -36 236 -16 33 -27 63 -27 68
1 4 -3 7 -8 7 -6 0 -10 4 -10 9 0 11 -36 55 -70 85 -13 11 -39 37 -58 56 l-34
35 33 -65 c18 -36 34 -71 35 -78 2 -8 6 -21 10 -30 4 -9 8 -24 9 -32 2 -8 6
-33 10 -55 16 -82 7 -188 -21 -268 -9 -23 -17 -49 -19 -57 -5 -23 -95 -302
-105 -327 -5 -13 -7 -30 -4 -38 9 -23 -10 -18 -37 11 -13 14 -36 32 -51 40
-28 14 -40 41 -15 31 9 -3 23 27 47 102 19 58 35 108 36 111 0 3 4 13 7 23 23
58 28 74 29 95 1 6 4 12 8 12 4 0 7 6 8 13 1 27 12 60 23 73 6 8 9 14 6 14 -3
0 3 25 12 55 18 56 13 147 -9 205 -1 3 -2 8 -1 13 0 4 -3 7 -9 7 -5 0 -10 6
-10 14 0 7 -9 25 -21 40 -11 14 -17 26 -13 26 3 0 -11 16 -32 35 -21 19 -42
35 -47 35 -4 0 -6 3 -4 8 3 4 -7 16 -21 26 l-25 19 15 -29 c56 -106 77 -221
56 -316 -5 -24 -10 -50 -12 -58 -2 -8 -6 -22 -9 -30 -6 -14 -104 -321 -111
-345 -1 -5 -9 -30 -16 -55 -7 -25 -13 -52 -12 -61 0 -12 -11 -18 -46 -22 -26
-3 -59 -8 -74 -11 -21 -5 -28 -3 -28 9 0 8 5 14 11 12 7 -1 38 60 37 76 0 1
33 103 73 227 40 124 72 228 71 233 -1 4 3 7 9 7 5 0 7 5 4 10 -3 6 -3 16 2
23 15 23 25 133 14 152 -3 6 -7 21 -9 35 -2 14 -7 27 -13 28 -5 2 -9 9 -9 17
0 7 -7 18 -15 25 -9 7 -13 15 -11 18 8 8 -57 61 -67 55 -6 -3 -7 -1 -3 6 4 6
1 18 -8 26 -24 25 -27 17 -6 -19 10 -19 24 -54 31 -78 14 -48 20 -168 9 -183
-6 -9 -18 -46 -20 -67 0 -4 -7 -23 -15 -42 -8 -18 -11 -36 -8 -40 4 -3 1 -6
-6 -6 -7 0 -10 -4 -6 -9 3 -5 0 -13 -6 -17 -13 -7 -51 35 -43 48 3 4 0 8 -6 8
-6 0 -8 5 -5 10 3 6 1 10 -4 10 -6 0 -11 8 -11 18 0 9 -14 44 -30 77 -16 33
-30 66 -30 73 0 6 -5 12 -11 12 -5 0 -7 5 -4 10 3 6 1 10 -4 10 -6 0 -10 3 -9
8 1 4 -9 30 -21 57 -37 82 -44 100 -43 108 1 4 -3 7 -9 7 -5 0 -8 4 -5 9 4 5
3 11 -1 13 -5 1 -17 23 -29 48 l-21 44 -16 -49z"/>
<path d="M3250 5543 c1 -19 16 -31 29 -24 7 5 10 14 7 20 -8 12 -36 15 -36 4z"/>
<path d="M225 4778 c4 -13 11 -27 16 -32 5 -6 9 -18 9 -28 0 -10 5 -18 10 -18
6 0 10 -8 10 -19 0 -10 6 -24 14 -30 7 -6 14 -22 14 -35 0 -13 7 -39 16 -56 9
-18 16 -39 16 -47 0 -7 5 -13 11 -13 5 0 8 -4 5 -8 -3 -5 2 -22 10 -38 9 -16
16 -31 16 -34 1 -7 17 -50 31 -82 10 -23 18 -28 48 -28 33 0 37 4 57 48 12 27
22 51 22 54 0 3 7 22 15 42 8 20 15 37 14 38 -1 2 7 21 18 43 12 22 21 43 22
48 0 4 8 24 17 45 9 20 17 42 18 47 1 6 9 26 18 46 31 72 31 76 -2 74 -17 -1
-34 -6 -39 -11 -7 -7 -44 -97 -47 -114 -1 -5 -18 -50 -31 -80 -3 -8 -7 -17 -8
-20 -3 -8 -25 -64 -32 -80 -4 -8 -7 -23 -8 -32 -1 -10 -8 -24 -15 -33 -13 -16
-31 -21 -28 -7 1 4 -6 24 -15 46 -9 21 -17 44 -17 50 0 7 -4 16 -9 22 -5 5
-19 36 -31 69 -12 33 -30 80 -39 105 -28 74 -42 90 -79 90 -30 0 -33 -2 -27
-22z"/>
<path d="M7058 4795 c-2 -2 -23 -4 -48 -6 -25 -1 -49 -5 -55 -8 -5 -3 -12 -6
-15 -7 -34 -8 -70 -30 -75 -45 -4 -11 -10 -17 -15 -14 -5 3 -19 -17 -32 -45
-21 -43 -24 -63 -21 -133 4 -105 5 -107 16 -107 5 0 6 -7 3 -15 -3 -9 1 -18 9
-21 8 -4 13 -9 11 -13 -5 -7 40 -46 53 -46 3 -1 17 -7 31 -14 35 -20 194 -18
240 2 64 28 91 75 95 167 3 70 -5 80 -61 74 -24 -2 -44 0 -44 4 0 4 -26 6 -57
6 -49 -2 -58 -5 -58 -20 0 -34 12 -39 86 -38 l72 2 -6 -55 c-7 -63 -29 -92
-80 -101 -102 -18 -192 8 -223 66 -23 44 -28 179 -7 219 20 40 57 71 90 78 46
9 131 7 153 -5 11 -6 20 -8 20 -5 0 4 7 -1 16 -10 15 -15 18 -14 40 6 13 12
21 26 17 31 -11 19 -144 64 -155 53z"/>
<path d="M8195 4792 c-122 -13 -177 -163 -82 -225 31 -20 118 -45 182 -53 62
-7 83 -18 91 -49 23 -94 -92 -134 -246 -86 -61 19 -62 19 -82 -1 -25 -25 -18
-31 62 -55 56 -16 168 -22 228 -11 40 8 98 50 101 75 9 59 3 115 -15 134 -26
29 -77 49 -86 35 -6 -8 -10 -7 -16 2 -5 7 -16 10 -25 6 -11 -4 -17 -1 -17 7 0
10 -3 10 -12 1 -16 -16 -28 -15 -28 3 0 10 -10 15 -28 15 -26 0 -69 22 -84 44
-15 21 -8 53 16 75 20 19 37 24 83 24 69 1 111 -6 140 -21 18 -10 23 -8 37 12
12 19 13 26 3 34 -32 25 -144 43 -222 34z"/>
<path d="M1735 4765 c-21 -17 -29 -33 -30 -57 -1 -18 3 -36 9 -40 6 -4 6 -11
0 -20 -6 -7 -10 -81 -10 -173 l1 -160 30 0 30 0 1 182 c1 99 5 187 9 194 5 7
4 10 -3 5 -14 -8 -25 10 -15 26 6 11 15 69 10 68 -1 -1 -15 -12 -32 -25z"/>
<path d="M3160 4772 c-8 -9 -14 -20 -12 -24 1 -5 -5 -8 -15 -8 -9 0 -13 -3
-10 -7 4 -3 -9 -19 -28 -36 -19 -16 -35 -35 -35 -42 0 -7 -8 -19 -17 -26 -17
-13 -17 -13 -3 6 14 19 14 19 -2 6 -10 -7 -18 -18 -18 -23 0 -5 -11 -19 -25
-32 -13 -13 -22 -25 -20 -28 3 -2 -2 -5 -10 -5 -11 0 -15 10 -14 36 2 53 0 63
-11 56 -5 -3 -10 -2 -10 4 0 5 5 13 11 17 8 4 7 9 -2 14 -10 7 -10 11 0 24 9
11 10 16 2 16 -6 0 -11 7 -11 16 0 8 4 13 8 10 4 -2 8 4 8 15 0 10 -2 19 -3
19 -6 0 -48 -25 -53 -32 -3 -4 -5 -103 -5 -220 l0 -213 30 0 c17 0 31 6 31 13
1 6 2 38 3 70 1 51 5 62 39 102 21 25 43 46 49 47 7 2 20 -11 30 -27 9 -17 21
-30 25 -30 4 0 8 -5 8 -10 0 -12 41 -73 53 -78 4 -2 5 -8 1 -13 -3 -5 2 -12
10 -15 9 -3 16 -12 16 -19 0 -7 7 -18 16 -26 19 -16 77 -20 69 -5 -3 6 -8 19
-11 29 -4 9 -9 17 -13 17 -4 0 -15 16 -25 35 -11 19 -23 35 -28 35 -5 0 -6 5
-3 10 3 6 -1 13 -9 16 -9 3 -16 10 -16 15 0 5 -16 33 -35 63 -19 30 -35 59
-35 65 0 9 47 64 121 143 l37 38 -37 0 c-21 -1 -42 -8 -51 -18z"/>
<path d="M4375 4770 c-36 -24 -45 -46 -34 -84 5 -18 5 -34 -2 -42 -7 -8 -6
-13 3 -16 10 -4 10 -8 -1 -21 -9 -12 -10 -17 -2 -17 8 0 10 -8 5 -22 -9 -31
-11 -248 -1 -249 4 -1 19 -2 35 -3 l27 -1 3 158 c1 86 -1 157 -6 157 -5 0 -9
7 -9 15 0 8 5 15 11 15 7 0 7 3 1 8 -11 8 -16 72 -5 72 3 0 6 11 6 25 0 14 0
25 0 24 -1 0 -14 -9 -31 -19z"/>
<path d="M5546 4562 c1 -125 2 -232 3 -238 0 -6 11 -10 24 -8 12 1 27 3 32 3
6 1 10 68 10 179 0 136 3 179 12 179 7 0 15 -9 19 -19 3 -10 10 -18 15 -18 5
0 9 -6 9 -14 0 -8 7 -17 16 -20 9 -4 14 -9 11 -12 -3 -3 6 -17 20 -30 14 -13
22 -24 17 -24 -5 0 -4 -4 2 -8 9 -6 81 -101 149 -197 13 -19 57 -27 71 -13 3
3 6 72 6 153 1 114 -1 148 -12 155 -11 7 -11 11 0 24 11 14 10 16 -4 10 -9 -3
-16 -1 -16 5 0 6 4 11 9 11 5 0 11 7 14 14 4 10 1 13 -9 9 -7 -3 -14 0 -14 6
0 6 5 11 11 11 5 0 8 4 5 9 -4 5 -1 11 6 13 7 3 9 12 5 22 -6 16 -8 16 -31 -1
-25 -19 -40 -80 -21 -86 6 -2 5 -10 -4 -20 -8 -10 -9 -17 -3 -17 7 0 9 -16 5
-42 -3 -24 -5 -67 -5 -95 -1 -29 -4 -53 -7 -53 -8 0 -81 86 -81 96 0 4 -7 14
-15 23 -26 27 -65 79 -65 85 0 7 -26 40 -57 73 -12 13 -19 23 -16 23 3 0 -2 9
-12 20 -12 14 -31 20 -59 20 l-41 0 1 -228z"/>
<path d="M8483 4314 c0 -16 23 -19 31 -5 3 5 -2 11 -12 13 -11 3 -19 0 -19 -8z"/>
</g>
</svg>
